inDegrees=no
num_controls=7
num_derivatives=13
num_iterations=186
num_multipliers=7
num_parameters=0
num_slacks=7
num_states=26
objective=6.133709
objective_accelerations=0.511207
objective_balance=0.051321
objective_effort=0.475685
objective_height=5.071848
objective_ligament=0.023649
solver_duration=1693.511237
status=Solve_Succeeded
success=true
DataType=double
version=3
OpenSimVersion=4.4-2022-07-23-0e9fedc
endheader
time	/jointset/ground_pelvis/pelvis_tilt/value	/jointset/ground_pelvis/pelvis_tx/value	/jointset/ground_pelvis/pelvis_ty/value	/jointset/hip_r/hip_flexion_r/value	/jointset/hip_r/hip_adduction_r/value	/jointset/hip_r/hip_rotation_r/value	/jointset/back/lumbar_extension/value	/jointset/patellofemoral_r/patellar_flexion_r/value	/jointset/knee_r/knee_flexion_r/value	/jointset/knee_r/knee_adduction_r/value	/jointset/knee_r/knee_rotation_r/value	/jointset/ankle_r/ankle_angle_r/value	/jointset/subtalar_r/subtalar_angle_r/value	/jointset/ground_pelvis/pelvis_tilt/speed	/jointset/ground_pelvis/pelvis_tx/speed	/jointset/ground_pelvis/pelvis_ty/speed	/jointset/hip_r/hip_flexion_r/speed	/jointset/hip_r/hip_adduction_r/speed	/jointset/hip_r/hip_rotation_r/speed	/jointset/back/lumbar_extension/speed	/jointset/patellofemoral_r/patellar_flexion_r/speed	/jointset/knee_r/knee_flexion_r/speed	/jointset/knee_r/knee_adduction_r/speed	/jointset/knee_r/knee_rotation_r/speed	/jointset/ankle_r/ankle_angle_r/speed	/jointset/subtalar_r/subtalar_angle_r/speed	/forceset/tau_hip_flexion_r	/forceset/tau_hip_adduction_r	/forceset/tau_hip_rotation_r	/forceset/tau_knee_flexion_r	/forceset/tau_ankle_angle_r	/forceset/tau_subtalar_angle_r	/forceset/tau_lumbar_extension	lambda_cid13_p0	lambda_cid14_p0	lambda_cid14_p1	lambda_cid14_p2	lambda_cid14_p3	lambda_cid14_p4	lambda_cid14_p5	/jointset/ground_pelvis/pelvis_tilt/accel	/jointset/ground_pelvis/pelvis_tx/accel	/jointset/ground_pelvis/pelvis_ty/accel	/jointset/hip_r/hip_flexion_r/accel	/jointset/hip_r/hip_adduction_r/accel	/jointset/hip_r/hip_rotation_r/accel	/jointset/back/lumbar_extension/accel	/jointset/patellofemoral_r/patellar_flexion_r/accel	/jointset/knee_r/knee_flexion_r/accel	/jointset/knee_r/knee_adduction_r/accel	/jointset/knee_r/knee_rotation_r/accel	/jointset/ankle_r/ankle_angle_r/accel	/jointset/subtalar_r/subtalar_angle_r/accel	gamma_cid13_p0	gamma_cid14_p0	gamma_cid14_p1	gamma_cid14_p2	gamma_cid14_p3	gamma_cid14_p4	gamma_cid14_p5
1	-0.2521997727973936	0.01492495981648584	0.7047765640836607	1.291880026744539	-0.2341901439609389	-0.06871938159339683	-0.4363086691958296	1.276841758076158	1.276841758076164	-0.06253212995577903	0.1745295462559162	0.4363038435741363	0.107387289260473	0.0002067280312324312	0.004358628422138267	0.01591525335400441	-0.0437037054241203	0.00160643773013468	-0.008738589948924942	0.002897481096245946	-0.05206095871798146	-0.05206095871798453	0.00349993041402651	-0.0001306510165388351	-0.01013811090214363	-0.001054775987169559	-0.2484849534612152	0.0130945710192777	0.0128828973353882	-0.4741540670998519	-0.01970826864593897	0.01205910432661799	0.2781659536395557	-0.1516404987464453	-54.31448843474762	-3.88134265935399	0.6316169331486592	17.38576969092441	-790.5024150428237	67.07770958060991	1.157442584116502	0.08906933932871165	1.557842119692995	-4.842312958920269	0.09985832221941066	-0.4049892861357108	0.2294285232590711	-4.923237849329587	-4.923237849329539	0.8375004758321604	0.005962504995371874	-1.451982526100728	-0.3935236375791795	8.053218356796075e-10	-2.874979783542805e-09	9.57470271484598e-09	7.469804989320717e-09	7.293818089253233e-09	-5.180273076666678e-09	8.91506332712797e-09
1.01	-0.2521409044183881	0.01497307148744159	0.7050134585470027	1.291202020370897	-0.2341690557611829	-0.06882641470251995	-0.4362661135883363	1.276075106046231	1.276075106046237	-0.06245477132352167	0.1745282321430966	0.4361298943649415	0.1073571188319662	0.01152486062220234	0.005273501051959226	0.03146212185804634	-0.09187406018886804	0.00260964633213758	-0.01267058603349065	0.005750996051888373	-0.1012881929606718	-0.1012881929606683	0.01197705108944985	-0.0001306285727021707	-0.02465305115653115	-0.004981647539825024	-0.2493772104220863	0.01335802951069131	0.01286455359850048	-0.4733206179884016	-0.02071521778436648	0.0121154986655869	0.2790264779342945	-0.1578045088303536	-54.65451749734752	-3.912377021953125	0.631984115437917	17.50026069772888	-790.9012399415983	66.95754841720867	1.112686300153648	0.09416645764300394	1.55287978051098	-4.800869816058282	0.1003213569314072	-0.387688016695684	0.3339163290537656	-4.925278372502675	-4.925278372501777	0.8536080073475636	-0.002742636397513602	-1.4514488546096	-0.392614684423029	1.526675429482948e-09	-1.431957623630742e-09	2.098572974683132e-08	1.274432566398329e-08	4.727968266691598e-09	-9.04491715732642e-09	2.322131489811341e-08
1.02	-0.2519701171727594	0.01503062593126237	0.7054057758083359	1.290043015833451	-0.2341379816298739	-0.06897284442187261	-0.4361909021618096	1.274815619241723	1.274815619241722	-0.06229248345574748	0.174526965304625	0.4358107559373005	0.1072876105338683	0.0225905013558215	0.006247182995145399	0.04699981295220589	-0.1399033381858654	0.003603624043762961	-0.01661791200120653	0.009428644901007295	-0.1506279136339192	-0.1506279136339097	0.02048577752288684	-0.0001211961478754827	-0.03917595459099275	-0.008922349905055402	-0.2502694673829098	0.01362148800213341	0.01284620986161133	-0.4724871688769456	-0.02172216692278889	0.01217189300460587	0.2798870022290765	-0.1683195894600946	-55.00538664750441	-3.942417356711254	0.6288892668769167	17.63618992677505	-791.4714668341035	66.8519978900389	1.106944212646386	0.1008312020017478	1.556006637716516	-4.814097605370215	0.09801214414377141	-0.4080552627658913	0.3942553019543888	-4.945735135441008	-4.94573513544106	0.843821627434981	0.007844501193721072	-1.453575162115594	-0.3962898000944088	1.937141745086624e-09	-5.599346851562743e-10	3.000434601102716e-08	1.876424870517372e-08	3.467599034222076e-09	-1.08045438675071e-08	3.294146977533629e-08
1.03	-0.2516898843603677	0.01509825737475423	0.7059533350162386	1.288404507172921	-0.2340970247496987	-0.06915887108668432	-0.436074795038618	1.273062384852815	1.273062384852811	-0.0620450420936544	0.1745258371468319	0.4353464377141955	0.1071786554995418	0.03341657852008229	0.007293579401884655	0.06250126855565645	-0.1877637704922744	0.0045849944290116	-0.02059023375555516	0.01393347093418345	-0.2000161671665078	-0.2000161671664965	0.02900293336082584	-0.0001045728782798492	-0.05368025282056436	-0.01286840559791788	-0.2508278483776668	0.01374977114456644	0.01283419727257247	-0.4713881902587857	-0.02236435081608988	0.01223403927345621	0.2804905475428771	-0.1837340628790137	-55.2037264557383	-3.934237835151705	0.6094039498274729	17.61939444419557	-791.5289194592006	66.77331696314573	1.06451817507115	0.1087153513138887	1.545598491680261	-4.766821699533751	0.09779079290580968	-0.3922426101709439	0.4996999336381968	-4.934951386345095	-4.934951386344858	0.8557317730045088	-0.00144208119525527	-1.447743066333917	-0.3937165547637544	2.344435741524996e-09	3.062617306504593e-10	3.899854992044963e-08	2.479177789296137e-08	2.220551032263705e-09	-1.254269080860125e-08	4.261482774752075e-08
1.04	-0.2513025750349809	0.01517678708057422	0.7066555854741804	1.286288433058065	-0.234046335904247	-0.06938470536469954	-0.4359094189191655	1.270815351743745	1.270815351743739	-0.06171241533099613	0.1745248725574924	0.4347372993262038	0.1070302492881088	0.04400580395453968	0.008426835460769926	0.07793806296000441	-0.2354164290489881	0.005550017101883104	-0.02457943464596976	0.01928244415291723	-0.2493876576661883	-0.249387657666175	0.03752285764001957	-8.848245019327387e-05	-0.06813998756837471	-0.01681258532604517	-0.2513862293724723	0.01387805428699077	0.01282218468350778	-0.4702892116406274	-0.02300653470938674	0.0122961855422936	0.281094092856632	-0.2048244515847477	-55.41288716470841	-3.924972480124834	0.5863409551284987	17.62298081888529	-791.7582503304507	66.70919608545555	1.059573866685757	0.1182031324309335	1.543074397895999	-4.772542855431153	0.09474260166824146	-0.4114310899791869	0.5630847390659621	-4.942382528859381	-4.942382528859406	0.8443753156859987	0.007737932892164482	-1.444662465763396	-0.3959146071475587	2.617463858969889e-09	6.722420887285729e-10	4.572117142120944e-08	2.769540007564623e-08	1.489297496209209e-09	-1.489448614159868e-08	4.960339951976544e-08
1.05	-0.2508105103251489	0.01526708587273407	0.7075118180928027	1.283696939271629	-0.233986088677214	-0.0696506124119164	-0.4356864671061639	1.268074766577795	1.268074766577804	-0.06129467320412513	0.1745240957103462	0.4339837527342893	0.1068423939008315	0.05436974940832287	0.00964768405834053	0.09329107878519216	-0.2828379880559298	0.006495868365353341	-0.02860640315935451	0.02543875564836677	-0.2987180495957619	-0.2987180495957592	0.04602339998327027	-6.749297771264459e-05	-0.0825652090583876	-0.0207597082164305	-0.2515768539202012	0.0139762310591783	0.0128138244816871	-0.46894741762934	-0.02340106568418307	0.01232425755656942	0.2813865740299654	-0.2325624380745972	-55.51650536966786	-3.912277578692468	0.563018844132637	17.57245354052754	-791.5215950385501	66.60861796166135	1.01919787788265	0.1262400340150209	1.528804400896538	-4.720310459514492	0.09397855520765643	-0.398994362595006	0.6615299350102791	-4.926669215787542	-4.926669215789159	0.852573256070854	-0.0008022503217684767	-1.440835578020618	-0.3942815639905491	2.886296167696236e-09	1.02259069500267e-09	5.237280597169856e-08	3.050140016442165e-08	7.741625372142076e-10	-1.726545798684308e-08	5.650807172326203e-08
